<svg xmlns="http://www.w3.org/2000/svg" viewBox="0 0 480 240" width="480" height="240" role="img" aria-label="Codex gx  Genesis Constellation logo">
  <defs>
    <linearGradient id="bgA" x1="0" y1="0" x2="1" y2="1">
      <stop offset="0" stop-color="#050818"/>
      <stop offset="0.5" stop-color="#0d1338"/>
      <stop offset="1" stop-color="#1a1f4a"/>
    </linearGradient>
    <linearGradient id="goldA" x1="0" y1="0" x2="0" y2="1">
      <stop offset="0" stop-color="#ffe680"/>
      <stop offset="0.5" stop-color="#ffb800"/>
      <stop offset="1" stop-color="#b8860b"/>
    </linearGradient>
    <radialGradient id="glowA" cx="0.5" cy="0.5" r="0.5">
      <stop offset="0" stop-color="#ffd700" stop-opacity="0.4"/>
      <stop offset="1" stop-color="#ffd700" stop-opacity="0"/>
    </radialGradient>
  </defs>

  <rect x="0" y="0" width="480" height="240" rx="36" fill="url(#bgA)"/>

  <circle cx="120" cy="50" r="1.2" fill="#ffffff" opacity="0.7"/>
  <circle cx="380" cy="40" r="1.0" fill="#ffffff" opacity="0.6"/>
  <circle cx="60" cy="200" r="1.5" fill="#ffd700" opacity="0.8"/>
  <circle cx="430" cy="210" r="1.2" fill="#ffffff" opacity="0.5"/>
  <circle cx="450" cy="100" r="0.8" fill="#ffd700" opacity="0.6"/>
  <circle cx="30" cy="120" r="0.8" fill="#ffffff" opacity="0.4"/>

  <ellipse cx="120" cy="120" rx="80" ry="80" fill="url(#glowA)"/>

  <path d="M 80 120 A 40 40 0 1 1 80 121 Z" fill="none"/>
  <path d="
    M 120 70
    A 50 50 0 1 0 120 170
    L 120 148
    A 28 28 0 1 1 120 92
    Z
  " fill="url(#goldA)"/>
  <rect x="110" y="113" width="48" height="11" fill="url(#goldA)" rx="1"/>

  <g stroke="url(#goldA)" stroke-width="12" stroke-linecap="round">
    <line x1="220" y1="80" x2="305" y2="165"/>
    <line x1="305" y1="80" x2="220" y2="165"/>
  </g>

  <path d="M 40 120 A 200 200 0 0 1 440 120" stroke="#ffd700" stroke-width="1.2" fill="none" opacity="0.35"/>
  <circle cx="40" cy="120" r="3" fill="#ffd700" opacity="0.6"/>
  <circle cx="440" cy="120" r="3" fill="#ffd700" opacity="0.6"/>

  <g transform="translate(240, 200)">
    <text x="0" y="0" text-anchor="middle" font-family="-apple-system, 'SF Pro Display', 'Helvetica Neue', Arial, sans-serif" font-size="22" font-weight="700" fill="#ffd700" letter-spacing="8">CODEX GX</text>
  </g>
</svg>
